<svg width="138" height="80" viewBox="0 0 138 80" fill="none" xmlns="http://www.w3.org/2000/svg">
<path d="M93.8064 41.4015L90.1899 44.2231C88.9685 45.2385 87.7759 46.2754 86.519 47.3549C84.0055 49.5866 81.559 52.1855 79.1806 55.1453C78.5153 56.0003 77.8987 56.9147 77.3301 57.8899C76.9581 58.5104 76.6438 59.1464 76.379 59.8037C76.1163 60.4572 75.9225 61.0922 75.7976 61.7047C75.6953 62.3128 75.667 62.8611 75.7098 63.3596C75.7529 63.8527 75.8674 64.2681 76.0516 64.5993C76.3671 65.1762 76.8118 65.5345 77.3872 65.68C78.4146 65.7748 79.5138 65.6802 80.6892 65.3877C81.8648 65.0954 83.0892 64.6181 84.3628 63.9555C89.0421 61.6619 93.803 58.8942 98.6437 55.6508C103.474 52.43 108.336 48.8412 113.223 44.8865C118.206 40.9124 123.145 36.2993 128.043 31.0377C129.37 29.545 130.654 27.9439 131.889 26.2267C132.286 25.7039 132.667 25.1553 133.027 24.584C133.389 24.0085 133.728 23.42 134.04 22.8163C134.353 22.2138 134.639 21.6014 134.892 20.9877C135.146 20.3741 135.369 19.7603 135.558 19.156C135.654 18.7901 135.728 18.4294 135.782 18.0846C135.835 17.7399 135.869 17.4069 135.877 17.093C135.887 16.7801 135.875 16.4833 135.842 16.2077C135.808 15.9321 135.755 15.679 135.677 15.4513C135.423 14.6795 135.005 14.1521 134.425 13.8692C133.479 13.4846 132.391 13.4346 131.161 13.7138C128.895 14.2283 126.507 15.2447 123.989 16.7703C121.562 18.2012 119.108 19.9297 116.622 21.9592C114.137 24.0058 111.69 26.3859 109.273 29.1068C108.674 29.7689 108.088 30.4663 107.512 31.1971C106.938 31.929 106.377 32.6909 105.836 33.4796C105.293 34.2684 104.772 35.0799 104.272 35.9139C103.771 36.7482 103.298 37.5973 102.848 38.4594C103.854 36.8889 104.922 35.4139 106.044 34.0424C107.169 32.6664 108.32 31.4331 109.5 30.3329C111.842 28.1236 114.178 26.2401 116.5 24.6844C118.745 23.1133 120.939 21.844 123.079 20.8852C125.219 19.9264 127.262 19.2885 129.205 18.9801C130.052 18.8519 130.779 18.9867 131.381 19.3823C131.944 19.694 131.867 20.2883 131.746 20.6455C131.528 21.1339 131.275 21.6136 130.995 22.0728C130.713 22.5363 130.409 22.9653 130.082 23.3653C129.095 24.6392 128.08 25.8304 127.042 26.9304C122.481 31.6077 117.898 35.7309 113.295 39.3011C108.594 43.1473 103.911 46.6956 99.25 49.9375C94.5882 53.2635 89.9701 56.2667 85.3936 58.9411C84.335 59.5891 83.3054 60.1017 82.3065 60.481C81.3054 60.859 80.3522 61.0957 79.4424 61.1944C79.2915 61.2226 79.1555 61.2144 79.0323 61.1742C78.9094 61.1336 78.8047 61.0646 78.719 60.9614C78.6333 60.8577 78.5681 60.7268 78.5255 60.5689C78.485 60.4071 78.4621 60.227 78.466 60.022C78.3793 59.7228 79.1862 58.0921 80.1577 56.7262C82.2524 53.804 84.4451 51.1653 86.7339 48.809C89.0205 46.2224 91.4282 43.8311 93.7929 41.4167L93.8064 41.4015Z" fill="url(#paint0_linear_166_2)"/>
<path d="M8.26 46.1035C7.14 46.1035 6.12667 45.9235 5.22 45.5635C4.31333 45.2035 3.53333 44.6968 2.88 44.0435C2.22667 43.3902 1.72667 42.6235 1.38 41.7435C1.03333 40.8502 0.86 39.8835 0.86 38.8435C0.86 37.8035 1.04 36.8502 1.4 35.9835C1.77333 35.1035 2.3 34.3368 2.98 33.6835C3.66 33.0302 4.46 32.5235 5.38 32.1635C6.31333 31.8035 7.32667 31.6235 8.42 31.6235C9.19333 31.6235 9.92 31.7235 10.6 31.9235C11.2933 32.1235 11.92 32.3968 12.48 32.7435C13.04 33.0902 13.5133 33.4902 13.9 33.9435L11.84 36.1235C11.5067 35.8035 11.16 35.5368 10.8 35.3235C10.4533 35.1102 10.08 34.9435 9.68 34.8235C9.28 34.6902 8.85333 34.6235 8.4 34.6235C7.81333 34.6235 7.27333 34.7302 6.78 34.9435C6.3 35.1568 5.87333 35.4568 5.5 35.8435C5.14 36.2168 4.86 36.6635 4.66 37.1835C4.46 37.6902 4.36 38.2435 4.36 38.8435C4.36 39.4435 4.46667 40.0035 4.68 40.5235C4.89333 41.0435 5.18667 41.4968 5.56 41.8835C5.93333 42.2568 6.37333 42.5568 6.88 42.7835C7.4 42.9968 7.95333 43.1035 8.54 43.1035C8.95333 43.1035 9.34 43.0368 9.7 42.9035C10.0733 42.7702 10.3933 42.5902 10.66 42.3635C10.9267 42.1368 11.14 41.8702 11.3 41.5635C11.46 41.2435 11.54 40.9035 11.54 40.5435V40.0235L11.98 40.7035H8.12V38.0435H14.7C14.7267 38.1902 14.7467 38.3902 14.76 38.6435C14.7733 38.8968 14.78 39.1435 14.78 39.3835C14.7933 39.6235 14.8 39.8035 14.8 39.9235C14.8 40.8302 14.6333 41.6635 14.3 42.4235C13.98 43.1702 13.5267 43.8168 12.94 44.3635C12.3533 44.9102 11.66 45.3368 10.86 45.6435C10.06 45.9502 9.19333 46.1035 8.26 46.1035ZM20.1367 45.9035V34.9035H15.9767V31.9035H27.7967V34.9035H23.5367V45.9035H20.1367Z" fill="url(#paint1_linear_166_2)"/>
<path d="M43.2484 46.1035C42.2484 46.1035 41.3218 45.9302 40.4684 45.5835C39.6284 45.2368 38.9018 44.7502 38.2884 44.1235C37.6751 43.4835 37.1951 42.7302 36.8484 41.8635C36.5151 40.9835 36.3484 40.0235 36.3484 38.9835C36.3484 37.9168 36.5151 36.9435 36.8484 36.0635C37.1818 35.1702 37.6551 34.4035 38.2684 33.7635C38.8951 33.1102 39.6284 32.6035 40.4684 32.2435C41.3084 31.8835 42.2284 31.7035 43.2284 31.7035C43.9884 31.7035 44.6951 31.8102 45.3484 32.0235C46.0018 32.2368 46.6018 32.5435 47.1484 32.9435C47.6951 33.3302 48.1818 33.7835 48.6084 34.3035L48.2684 34.6235C47.8818 34.1168 47.4284 33.6768 46.9084 33.3035C46.4018 32.9302 45.8351 32.6435 45.2084 32.4435C44.5951 32.2435 43.9351 32.1435 43.2284 32.1435C42.3084 32.1435 41.4551 32.3168 40.6684 32.6635C39.8818 32.9968 39.2018 33.4702 38.6284 34.0835C38.0551 34.6968 37.6084 35.4235 37.2884 36.2635C36.9684 37.0902 36.8084 37.9968 36.8084 38.9835C36.8084 39.9568 36.9684 40.8502 37.2884 41.6635C37.6084 42.4768 38.0551 43.1835 38.6284 43.7835C39.2151 44.3835 39.9018 44.8502 40.6884 45.1835C41.4751 45.5035 42.3284 45.6635 43.2484 45.6635C44.2084 45.6635 45.0551 45.5168 45.7884 45.2235C46.5351 44.9168 47.1618 44.4902 47.6684 43.9435C48.1884 43.3968 48.5751 42.7435 48.8284 41.9835C49.0951 41.2235 49.2284 40.3835 49.2284 39.4635V39.0835L49.3484 39.1835H43.4284V38.7435H49.6884C49.6884 38.8235 49.6884 38.8902 49.6884 38.9435C49.6884 38.9835 49.6884 39.0168 49.6884 39.0435C49.6884 39.0702 49.6884 39.0968 49.6884 39.1235C49.6884 40.2568 49.5418 41.2635 49.2484 42.1435C48.9551 43.0102 48.5284 43.7368 47.9684 44.3235C47.4084 44.9102 46.7284 45.3568 45.9284 45.6635C45.1418 45.9568 44.2484 46.1035 43.2484 46.1035ZM52.6205 45.9035V31.1035H53.0605V45.9035H52.6205ZM61.0663 46.1035C60.0129 46.1035 59.0796 45.8702 58.2663 45.4035C57.4663 44.9368 56.8396 44.2902 56.3863 43.4635C55.9329 42.6368 55.7063 41.6968 55.7063 40.6435C55.7063 39.6035 55.9329 38.6835 56.3863 37.8835C56.8396 37.0702 57.4663 36.4368 58.2663 35.9835C59.0796 35.5302 60.0129 35.3035 61.0663 35.3035C62.1196 35.3035 63.0463 35.5302 63.8463 35.9835C64.6596 36.4368 65.2863 37.0702 65.7263 37.8835C66.1796 38.6835 66.4063 39.6035 66.4063 40.6435C66.4063 41.6968 66.1796 42.6368 65.7263 43.4635C65.2863 44.2902 64.6596 44.9368 63.8463 45.4035C63.0463 45.8702 62.1196 46.1035 61.0663 46.1035ZM61.0663 45.6635C62.0129 45.6635 62.8529 45.4502 63.5863 45.0235C64.3196 44.5968 64.8996 44.0035 65.3263 43.2435C65.7529 42.4835 65.9663 41.6168 65.9663 40.6435C65.9663 39.6968 65.7529 38.8568 65.3263 38.1235C64.8996 37.3902 64.3196 36.8102 63.5863 36.3835C62.8529 35.9568 62.0129 35.7435 61.0663 35.7435C60.1196 35.7435 59.2729 35.9568 58.5263 36.3835C57.7929 36.8102 57.2129 37.3902 56.7863 38.1235C56.3596 38.8568 56.1463 39.6968 56.1463 40.6435C56.1463 41.6168 56.3596 42.4835 56.7863 43.2435C57.2129 44.0035 57.7929 44.5968 58.5263 45.0235C59.2729 45.4502 60.1196 45.6635 61.0663 45.6635ZM73.6509 46.1035C73.1176 46.1035 72.5976 46.0168 72.0909 45.8435C71.5976 45.6568 71.1443 45.4035 70.7309 45.0835C70.3176 44.7502 69.9709 44.3702 69.6909 43.9435C69.4109 43.5035 69.2243 43.0235 69.1309 42.5035L69.2509 42.5635L69.2109 45.9035H68.8109V31.1035H69.2509V38.9435L69.0709 39.0035C69.2043 38.4568 69.4109 37.9635 69.6909 37.5235C69.9709 37.0702 70.3109 36.6768 70.7109 36.3435C71.1109 36.0102 71.5509 35.7568 72.0309 35.5835C72.5243 35.3968 73.0376 35.3035 73.5709 35.3035C74.5443 35.3035 75.4109 35.5368 76.1709 36.0035C76.9443 36.4568 77.5509 37.0902 77.9909 37.9035C78.4309 38.7035 78.6509 39.6235 78.6509 40.6635C78.6509 41.7168 78.4243 42.6568 77.9709 43.4835C77.5176 44.2968 76.9109 44.9368 76.1509 45.4035C75.4043 45.8702 74.5709 46.1035 73.6509 46.1035ZM73.6309 45.6635C74.5243 45.6635 75.3176 45.4502 76.0109 45.0235C76.7043 44.5968 77.2443 44.0102 77.6309 43.2635C78.0176 42.5035 78.2109 41.6368 78.2109 40.6635C78.2109 39.7168 78.0176 38.8768 77.6309 38.1435C77.2443 37.3968 76.7043 36.8102 76.0109 36.3835C75.3176 35.9568 74.5109 35.7435 73.5909 35.7435C72.7776 35.7435 72.0376 35.9568 71.3709 36.3835C70.7176 36.7968 70.1976 37.3768 69.8109 38.1235C69.4376 38.8702 69.2509 39.7302 69.2509 40.7035C69.2509 41.6635 69.4376 42.5168 69.8109 43.2635C70.1976 44.0102 70.7176 44.5968 71.3709 45.0235C72.0376 45.4502 72.7909 45.6635 73.6309 45.6635ZM85.5222 46.1035C84.5489 46.1035 83.6755 45.8768 82.9022 45.4235C82.1422 44.9568 81.5422 44.3235 81.1022 43.5235C80.6622 42.7102 80.4422 41.7835 80.4422 40.7435C80.4422 39.6902 80.6689 38.7568 81.1222 37.9435C81.5755 37.1168 82.1755 36.4702 82.9222 36.0035C83.6822 35.5368 84.5222 35.3035 85.4422 35.3035C86.0022 35.3035 86.5355 35.3902 87.0422 35.5635C87.5489 35.7368 88.0022 35.9835 88.4022 36.3035C88.8022 36.6235 89.1355 37.0035 89.4022 37.4435C89.6822 37.8835 89.8689 38.3702 89.9622 38.9035L89.8422 38.8435L89.8822 35.4035H90.2822V45.9035H89.8422V42.4635L90.0222 42.4035C89.9022 42.9368 89.7022 43.4302 89.4222 43.8835C89.1555 44.3368 88.8222 44.7302 88.4222 45.0635C88.0222 45.3968 87.5755 45.6568 87.0822 45.8435C86.6022 46.0168 86.0822 46.1035 85.5222 46.1035ZM85.5222 45.6635C86.3355 45.6635 87.0689 45.4568 87.7222 45.0435C88.3889 44.6168 88.9089 44.0302 89.2822 43.2835C89.6689 42.5368 89.8622 41.6768 89.8622 40.7035C89.8622 39.7435 89.6689 38.8902 89.2822 38.1435C88.9089 37.3968 88.3889 36.8102 87.7222 36.3835C87.0689 35.9568 86.3222 35.7435 85.4822 35.7435C84.5889 35.7435 83.7955 35.9568 83.1022 36.3835C82.4089 36.8102 81.8689 37.4035 81.4822 38.1635C81.0955 38.9102 80.9022 39.7702 80.9022 40.7435C80.9022 41.6902 81.0955 42.5368 81.4822 43.2835C81.8689 44.0168 82.4089 44.5968 83.1022 45.0235C83.7955 45.4502 84.6022 45.6635 85.5222 45.6635ZM93.7134 45.9035V31.1035H94.1534V45.9035H93.7134ZM101.155 46.1035C100.275 46.1035 99.4745 45.9368 98.7545 45.6035C98.0345 45.2702 97.4812 44.8302 97.0945 44.2835L97.4345 43.9835C97.8079 44.4768 98.3145 44.8835 98.9545 45.2035C99.5945 45.5102 100.341 45.6635 101.195 45.6635C101.741 45.6635 102.208 45.5968 102.595 45.4635C102.981 45.3302 103.295 45.1502 103.535 44.9235C103.775 44.6968 103.955 44.4435 104.075 44.1635C104.195 43.8702 104.255 43.5635 104.255 43.2435C104.255 42.5902 103.975 42.0768 103.415 41.7035C103.148 41.5035 102.815 41.3302 102.415 41.1835C102.015 41.0368 101.548 40.9035 101.015 40.7835C100.415 40.6368 99.8812 40.4702 99.4145 40.2835C98.9612 40.0968 98.5879 39.8835 98.2945 39.6435C98.0279 39.4168 97.8279 39.1768 97.6945 38.9235C97.5612 38.6568 97.4945 38.3635 97.4945 38.0435C97.4945 37.6302 97.5745 37.2568 97.7345 36.9235C97.9079 36.5902 98.1412 36.3035 98.4345 36.0635C98.7412 35.8102 99.1079 35.6235 99.5345 35.5035C99.9745 35.3702 100.461 35.3035 100.995 35.3035C101.461 35.3035 101.915 35.3702 102.355 35.5035C102.795 35.6368 103.208 35.8302 103.595 36.0835C103.981 36.3368 104.328 36.6435 104.635 37.0035L104.315 37.3635C104.021 37.0302 103.701 36.7435 103.355 36.5035C103.008 36.2502 102.635 36.0635 102.235 35.9435C101.848 35.8102 101.435 35.7435 100.995 35.7435C100.515 35.7435 100.081 35.8035 99.6945 35.9235C99.3212 36.0302 99.0012 36.1902 98.7345 36.4035C98.4679 36.6035 98.2679 36.8435 98.1345 37.1235C98.0012 37.3902 97.9345 37.6902 97.9345 38.0235C97.9345 38.2502 97.9812 38.4702 98.0745 38.6835C98.1679 38.8968 98.3212 39.0902 98.5345 39.2635C98.8012 39.4902 99.1479 39.6902 99.5745 39.8635C100.015 40.0368 100.521 40.1902 101.095 40.3235C101.695 40.4568 102.215 40.6102 102.655 40.7835C103.108 40.9435 103.481 41.1368 103.775 41.3635C104.081 41.5902 104.308 41.8568 104.455 42.1635C104.615 42.4702 104.695 42.8302 104.695 43.2435C104.695 43.8168 104.555 44.3235 104.275 44.7635C103.995 45.1902 103.588 45.5235 103.055 45.7635C102.521 45.9902 101.888 46.1035 101.155 46.1035Z" fill="black"/>
<defs>
<linearGradient id="paint0_linear_166_2" x1="137.188" y1="23.75" x2="88.3343" y2="13.513" gradientUnits="userSpaceOnUse">
<stop stop-color="#2089B6"/>
<stop offset="1" stop-color="#53BCE9"/>
</linearGradient>
<linearGradient id="paint1_linear_166_2" x1="53" y1="26.9035" x2="53" y2="48.9035" gradientUnits="userSpaceOnUse">
<stop stop-color="#2089B6"/>
<stop offset="1" stop-color="#53BCE9"/>
</linearGradient>
</defs>
</svg>
