<svg width="186" height="80" viewBox="0 0 186 80" fill="none" xmlns="http://www.w3.org/2000/svg">
<path d="M141.806 41.4015L138.19 44.2231C136.968 45.2385 135.776 46.2754 134.519 47.3548C132.006 49.5866 129.559 52.1854 127.181 55.1452C126.515 56.0002 125.899 56.9147 125.33 57.8899C124.958 58.5103 124.644 59.1463 124.379 59.8036C124.116 60.4571 123.923 61.0921 123.798 61.7047C123.695 62.3127 123.667 62.861 123.71 63.3595C123.753 63.8526 123.867 64.268 124.052 64.5992C124.367 65.1762 124.812 65.5345 125.387 65.68C126.415 65.7747 127.514 65.6801 128.689 65.3877C129.865 65.0954 131.089 64.618 132.363 63.9554C137.042 61.6618 141.803 58.8941 146.644 55.6508C151.474 52.43 156.336 48.8411 161.224 44.8864C166.206 40.9123 171.145 36.2992 176.043 31.0377C177.37 29.545 178.654 27.9438 179.889 26.2267C180.286 25.7038 180.667 25.1552 181.027 24.584C181.389 24.0085 181.728 23.4199 182.04 22.8163C182.353 22.2137 182.639 21.6013 182.892 20.9877C183.146 20.374 183.369 19.7602 183.558 19.1559C183.654 18.79 183.729 18.4293 183.782 18.0846C183.835 17.7398 183.869 17.4068 183.877 17.0929C183.887 16.7801 183.875 16.4832 183.842 16.2076C183.808 15.9321 183.755 15.6789 183.677 15.4513C183.423 14.6795 183.005 14.1521 182.425 13.8691C181.479 13.4846 180.391 13.4345 179.161 13.7137C176.895 14.2282 174.507 15.2446 171.989 16.7703C169.562 18.2011 167.108 19.9297 164.622 21.9591C162.137 24.0057 159.69 26.3858 157.273 29.1068C156.674 29.7689 156.088 30.4662 155.512 31.197C154.938 31.9289 154.377 32.6909 153.836 33.4795C153.293 34.2684 152.772 35.0799 152.272 35.9138C151.771 36.7482 151.298 37.5973 150.848 38.4594C151.854 36.8888 152.922 35.4138 154.044 34.0424C155.17 32.6664 156.32 31.4331 157.5 30.3328C159.842 28.1235 162.178 26.2401 164.5 24.6844C166.745 23.1132 168.939 21.844 171.079 20.8851C173.219 19.9263 175.262 19.2884 177.205 18.98C178.052 18.8519 178.779 18.9867 179.381 19.3822C179.944 19.694 179.867 20.2882 179.746 20.6454C179.529 21.1339 179.275 21.6136 178.995 22.0728C178.713 22.5362 178.409 22.9653 178.082 23.3653C177.095 24.6391 176.08 25.8303 175.042 26.9303C170.481 31.6077 165.898 35.7309 161.295 39.301C156.594 43.1472 151.911 46.6955 147.25 49.9375C142.588 53.2635 137.97 56.2667 133.394 58.9411C132.335 59.589 131.305 60.1017 130.306 60.4809C129.305 60.859 128.352 61.0956 127.442 61.1944C127.292 61.2225 127.156 61.2143 127.032 61.1741C126.909 61.1335 126.805 61.0645 126.719 60.9613C126.633 60.8577 126.568 60.7268 126.526 60.5688C126.485 60.407 126.462 60.2269 126.466 60.022C126.379 59.7227 127.186 58.0921 128.158 56.7261C130.252 53.8039 132.445 51.1652 134.734 48.8089C137.021 46.2223 139.428 43.8311 141.793 41.4166L141.806 41.4015Z" fill="url(#paint0_linear_104_2)"/>
<path d="M8.26 46.1034C7.14 46.1034 6.12667 45.9234 5.22 45.5634C4.31333 45.2034 3.53333 44.6968 2.88 44.0434C2.22667 43.3901 1.72667 42.6234 1.38 41.7434C1.03333 40.8501 0.86 39.8834 0.86 38.8434C0.86 37.8034 1.04 36.8501 1.4 35.9834C1.77333 35.1034 2.3 34.3368 2.98 33.6834C3.66 33.0301 4.46 32.5234 5.38 32.1634C6.31333 31.8034 7.32667 31.6234 8.42 31.6234C9.19333 31.6234 9.92 31.7234 10.6 31.9234C11.2933 32.1234 11.92 32.3968 12.48 32.7434C13.04 33.0901 13.5133 33.4901 13.9 33.9434L11.84 36.1234C11.5067 35.8034 11.16 35.5368 10.8 35.3234C10.4533 35.1101 10.08 34.9434 9.68 34.8234C9.28 34.6901 8.85333 34.6234 8.4 34.6234C7.81333 34.6234 7.27333 34.7301 6.78 34.9434C6.3 35.1568 5.87333 35.4568 5.5 35.8434C5.14 36.2168 4.86 36.6634 4.66 37.1834C4.46 37.6901 4.36 38.2434 4.36 38.8434C4.36 39.4434 4.46667 40.0034 4.68 40.5234C4.89333 41.0434 5.18667 41.4968 5.56 41.8834C5.93333 42.2568 6.37333 42.5568 6.88 42.7834C7.4 42.9968 7.95333 43.1034 8.54 43.1034C8.95333 43.1034 9.34 43.0368 9.7 42.9034C10.0733 42.7701 10.3933 42.5901 10.66 42.3634C10.9267 42.1368 11.14 41.8701 11.3 41.5634C11.46 41.2434 11.54 40.9034 11.54 40.5434V40.0234L11.98 40.7034H8.12V38.0434H14.7C14.7267 38.1901 14.7467 38.3901 14.76 38.6434C14.7733 38.8968 14.78 39.1434 14.78 39.3834C14.7933 39.6234 14.8 39.8034 14.8 39.9234C14.8 40.8301 14.6333 41.6634 14.3 42.4234C13.98 43.1701 13.5267 43.8168 12.94 44.3634C12.3533 44.9101 11.66 45.3368 10.86 45.6434C10.06 45.9501 9.19333 46.1034 8.26 46.1034ZM20.1367 45.9034V34.9034H15.9767V31.9034H27.7967V34.9034H23.5367V45.9034H20.1367Z" fill="url(#paint1_linear_104_2)"/>
<path d="M39.9084 45.9034V32.3434H35.6484V31.9034H44.6084V32.3434H40.3484V45.9034H39.9084ZM49.1619 46.1034C48.1485 46.1034 47.2552 45.8701 46.4819 45.4034C45.7085 44.9368 45.1019 44.2901 44.6619 43.4634C44.2352 42.6368 44.0219 41.6968 44.0219 40.6434C44.0219 39.8568 44.1419 39.1368 44.3819 38.4834C44.6219 37.8301 44.9552 37.2701 45.3819 36.8034C45.8219 36.3234 46.3419 35.9568 46.9419 35.7034C47.5419 35.4368 48.2019 35.3034 48.9219 35.3034C49.5885 35.3034 50.2019 35.4168 50.7619 35.6434C51.3219 35.8568 51.8019 36.1768 52.2019 36.6034C52.6152 37.0168 52.9285 37.5168 53.1419 38.1034C53.3552 38.6901 53.4485 39.3501 53.4219 40.0834L53.4019 40.6034H44.2619V40.1634H53.1819L52.9419 40.5034L52.9819 40.0034C52.9819 39.1501 52.8019 38.4034 52.4419 37.7634C52.0819 37.1234 51.5952 36.6301 50.9819 36.2834C50.3819 35.9234 49.7152 35.7434 48.9819 35.7434C48.0752 35.7434 47.2819 35.9568 46.6019 36.3834C45.9352 36.7968 45.4152 37.3768 45.0419 38.1234C44.6685 38.8568 44.4752 39.6968 44.4619 40.6434C44.4752 41.6168 44.6819 42.4834 45.0819 43.2434C45.4819 44.0034 46.0285 44.5968 46.7219 45.0234C47.4285 45.4501 48.2419 45.6634 49.1619 45.6634C49.8552 45.6634 50.4952 45.5368 51.0819 45.2834C51.6685 45.0301 52.1952 44.6834 52.6619 44.2434L52.9019 44.6034C52.5685 44.9101 52.2085 45.1768 51.8219 45.4034C51.4485 45.6168 51.0352 45.7834 50.5819 45.9034C50.1419 46.0368 49.6685 46.1034 49.1619 46.1034ZM60.4403 46.1034C59.4003 46.1034 58.4803 45.8701 57.6803 45.4034C56.8803 44.9368 56.2536 44.2901 55.8003 43.4634C55.347 42.6368 55.1203 41.6968 55.1203 40.6434C55.1203 39.6034 55.347 38.6834 55.8003 37.8834C56.2536 37.0701 56.8803 36.4368 57.6803 35.9834C58.4803 35.5301 59.4003 35.3034 60.4403 35.3034C61.2803 35.3034 62.0403 35.4634 62.7203 35.7834C63.4003 36.0901 63.9736 36.5101 64.4403 37.0434L64.1203 37.3834C63.827 37.0368 63.487 36.7434 63.1003 36.5034C62.727 36.2634 62.3136 36.0768 61.8603 35.9434C61.4203 35.8101 60.947 35.7434 60.4403 35.7434C59.4936 35.7434 58.6536 35.9568 57.9203 36.3834C57.2003 36.7968 56.627 37.3701 56.2003 38.1034C55.787 38.8368 55.5736 39.6834 55.5603 40.6434C55.5736 41.6168 55.787 42.4834 56.2003 43.2434C56.627 44.0034 57.2003 44.5968 57.9203 45.0234C58.6536 45.4501 59.4936 45.6634 60.4403 45.6634C60.9336 45.6634 61.4003 45.6034 61.8403 45.4834C62.2803 45.3501 62.687 45.1634 63.0603 44.9234C63.447 44.6701 63.787 44.3768 64.0803 44.0434L64.4003 44.3634C63.9203 44.8968 63.347 45.3234 62.6803 45.6434C62.0136 45.9501 61.267 46.1034 60.4403 46.1034ZM66.4477 45.9034V31.1034H66.8877V37.8234L66.7077 37.8634C66.8543 37.3968 67.1277 36.9701 67.5277 36.5834C67.941 36.1968 68.4277 35.8901 68.9877 35.6634C69.561 35.4234 70.1677 35.3034 70.8077 35.3034C71.5943 35.3034 72.261 35.4434 72.8077 35.7234C73.3543 36.0034 73.7743 36.4434 74.0677 37.0434C74.361 37.6301 74.5077 38.3968 74.5077 39.3434V45.9034H74.0677V39.3434C74.0677 38.5034 73.9343 37.8168 73.6677 37.2834C73.4143 36.7501 73.041 36.3634 72.5477 36.1234C72.0677 35.8701 71.4743 35.7434 70.7677 35.7434C70.2077 35.7434 69.6877 35.8434 69.2077 36.0434C68.741 36.2301 68.3343 36.4701 67.9877 36.7634C67.641 37.0434 67.3677 37.3368 67.1677 37.6434C66.981 37.9368 66.8877 38.1834 66.8877 38.3834V45.9034H66.6677C66.641 45.9034 66.6077 45.9034 66.5677 45.9034C66.541 45.9034 66.501 45.9034 66.4477 45.9034ZM77.468 45.9034V35.4034H77.868L77.908 37.8234L77.728 37.8834C77.8746 37.4301 78.148 37.0101 78.548 36.6234C78.948 36.2234 79.428 35.9034 79.988 35.6634C80.5613 35.4234 81.1746 35.3034 81.828 35.3034C82.6146 35.3034 83.2813 35.4434 83.828 35.7234C84.3746 36.0034 84.7946 36.4434 85.088 37.0434C85.3813 37.6301 85.528 38.3968 85.528 39.3434V45.9034H85.088V39.3434C85.088 38.5034 84.9546 37.8168 84.688 37.2834C84.4346 36.7501 84.0613 36.3634 83.568 36.1234C83.088 35.8701 82.4946 35.7434 81.788 35.7434C81.228 35.7434 80.708 35.8434 80.228 36.0434C79.7613 36.2301 79.3546 36.4701 79.008 36.7634C78.6613 37.0434 78.388 37.3368 78.188 37.6434C78.0013 37.9368 77.908 38.1834 77.908 38.3834V45.9034H77.688C77.6613 45.9034 77.628 45.9034 77.588 45.9034C77.5613 45.9034 77.5213 45.9034 77.468 45.9034ZM93.2483 46.1034C92.1949 46.1034 91.2616 45.8701 90.4483 45.4034C89.6483 44.9368 89.0216 44.2901 88.5683 43.4634C88.1149 42.6368 87.8883 41.6968 87.8883 40.6434C87.8883 39.6034 88.1149 38.6834 88.5683 37.8834C89.0216 37.0701 89.6483 36.4368 90.4483 35.9834C91.2616 35.5301 92.1949 35.3034 93.2483 35.3034C94.3016 35.3034 95.2283 35.5301 96.0283 35.9834C96.8416 36.4368 97.4683 37.0701 97.9083 37.8834C98.3616 38.6834 98.5883 39.6034 98.5883 40.6434C98.5883 41.6968 98.3616 42.6368 97.9083 43.4634C97.4683 44.2901 96.8416 44.9368 96.0283 45.4034C95.2283 45.8701 94.3016 46.1034 93.2483 46.1034ZM93.2483 45.6634C94.1949 45.6634 95.0349 45.4501 95.7683 45.0234C96.5016 44.5968 97.0816 44.0034 97.5083 43.2434C97.9349 42.4834 98.1483 41.6168 98.1483 40.6434C98.1483 39.6968 97.9349 38.8568 97.5083 38.1234C97.0816 37.3901 96.5016 36.8101 95.7683 36.3834C95.0349 35.9568 94.1949 35.7434 93.2483 35.7434C92.3016 35.7434 91.4549 35.9568 90.7083 36.3834C89.9749 36.8101 89.3949 37.3901 88.9683 38.1234C88.5416 38.8568 88.3283 39.6968 88.3283 40.6434C88.3283 41.6168 88.5416 42.4834 88.9683 43.2434C89.3949 44.0034 89.9749 44.5968 90.7083 45.0234C91.4549 45.4501 92.3016 45.6634 93.2483 45.6634ZM101.433 45.9034V31.1034H101.873V45.9034H101.433ZM109.879 46.1034C108.825 46.1034 107.892 45.8701 107.079 45.4034C106.279 44.9368 105.652 44.2901 105.199 43.4634C104.745 42.6368 104.519 41.6968 104.519 40.6434C104.519 39.6034 104.745 38.6834 105.199 37.8834C105.652 37.0701 106.279 36.4368 107.079 35.9834C107.892 35.5301 108.825 35.3034 109.879 35.3034C110.932 35.3034 111.859 35.5301 112.659 35.9834C113.472 36.4368 114.099 37.0701 114.539 37.8834C114.992 38.6834 115.219 39.6034 115.219 40.6434C115.219 41.6968 114.992 42.6368 114.539 43.4634C114.099 44.2901 113.472 44.9368 112.659 45.4034C111.859 45.8701 110.932 46.1034 109.879 46.1034ZM109.879 45.6634C110.825 45.6634 111.665 45.4501 112.399 45.0234C113.132 44.5968 113.712 44.0034 114.139 43.2434C114.565 42.4834 114.779 41.6168 114.779 40.6434C114.779 39.6968 114.565 38.8568 114.139 38.1234C113.712 37.3901 113.132 36.8101 112.399 36.3834C111.665 35.9568 110.825 35.7434 109.879 35.7434C108.932 35.7434 108.085 35.9568 107.339 36.3834C106.605 36.8101 106.025 37.3901 105.599 38.1234C105.172 38.8568 104.959 39.6968 104.959 40.6434C104.959 41.6168 105.172 42.4834 105.599 43.2434C106.025 44.0034 106.605 44.5968 107.339 45.0234C108.085 45.4501 108.932 45.6634 109.879 45.6634ZM122.103 50.7034C121.383 50.7034 120.703 50.5768 120.063 50.3234C119.437 50.0701 118.91 49.7034 118.483 49.2234L118.703 48.8234C118.983 49.1168 119.29 49.3701 119.623 49.5834C119.97 49.7968 120.35 49.9634 120.763 50.0834C121.177 50.2034 121.617 50.2634 122.083 50.2634C122.843 50.2634 123.55 50.0634 124.203 49.6634C124.87 49.2634 125.403 48.6901 125.803 47.9434C126.217 47.2101 126.423 46.3301 126.423 45.3034V42.4634L126.603 42.4034C126.43 43.1234 126.123 43.7634 125.683 44.3234C125.243 44.8701 124.717 45.3034 124.103 45.6234C123.49 45.9434 122.823 46.1034 122.103 46.1034C121.13 46.1034 120.257 45.8768 119.483 45.4234C118.723 44.9568 118.123 44.3234 117.683 43.5234C117.243 42.7101 117.023 41.7834 117.023 40.7434C117.023 39.6901 117.25 38.7568 117.703 37.9434C118.157 37.1168 118.757 36.4701 119.503 36.0034C120.263 35.5368 121.103 35.3034 122.023 35.3034C122.45 35.3034 122.863 35.3634 123.263 35.4834C123.677 35.6034 124.063 35.7701 124.423 35.9834C124.783 36.1968 125.11 36.4568 125.403 36.7634C125.697 37.0568 125.937 37.3834 126.123 37.7434C126.323 38.1034 126.463 38.4901 126.543 38.9034L126.423 38.8434L126.463 35.4034H126.863V45.4834C126.863 46.2968 126.737 47.0234 126.483 47.6634C126.243 48.3168 125.903 48.8634 125.463 49.3034C125.023 49.7568 124.517 50.1034 123.943 50.3434C123.37 50.5834 122.757 50.7034 122.103 50.7034ZM122.083 45.6634C122.897 45.6634 123.63 45.4568 124.283 45.0434C124.95 44.6168 125.47 44.0301 125.843 43.2834C126.23 42.5368 126.423 41.6768 126.423 40.7034C126.423 39.7434 126.23 38.8901 125.843 38.1434C125.47 37.3968 124.95 36.8101 124.283 36.3834C123.63 35.9568 122.883 35.7434 122.043 35.7434C121.15 35.7434 120.357 35.9568 119.663 36.3834C118.97 36.8101 118.43 37.4034 118.043 38.1634C117.657 38.9101 117.463 39.7701 117.463 40.7434C117.463 41.6901 117.657 42.5368 118.043 43.2834C118.443 44.0168 118.99 44.5968 119.683 45.0234C120.377 45.4501 121.177 45.6634 122.083 45.6634ZM130.214 45.9034V35.4034H130.654V45.9034H130.214ZM130.434 32.6434C130.248 32.6434 130.108 32.5901 130.014 32.4834C129.921 32.3768 129.874 32.2368 129.874 32.0634C129.874 31.9034 129.921 31.7701 130.014 31.6634C130.108 31.5434 130.248 31.4834 130.434 31.4834C130.608 31.4834 130.741 31.5368 130.834 31.6434C130.941 31.7501 130.994 31.8901 130.994 32.0634C130.994 32.2368 130.948 32.3768 130.854 32.4834C130.761 32.5901 130.621 32.6434 130.434 32.6434ZM138.54 46.1034C137.527 46.1034 136.633 45.8701 135.86 45.4034C135.087 44.9368 134.48 44.2901 134.04 43.4634C133.613 42.6368 133.4 41.6968 133.4 40.6434C133.4 39.8568 133.52 39.1368 133.76 38.4834C134 37.8301 134.333 37.2701 134.76 36.8034C135.2 36.3234 135.72 35.9568 136.32 35.7034C136.92 35.4368 137.58 35.3034 138.3 35.3034C138.967 35.3034 139.58 35.4168 140.14 35.6434C140.7 35.8568 141.18 36.1768 141.58 36.6034C141.993 37.0168 142.307 37.5168 142.52 38.1034C142.733 38.6901 142.827 39.3501 142.8 40.0834L142.78 40.6034H133.64V40.1634H142.56L142.32 40.5034L142.36 40.0034C142.36 39.1501 142.18 38.4034 141.82 37.7634C141.46 37.1234 140.973 36.6301 140.36 36.2834C139.76 35.9234 139.093 35.7434 138.36 35.7434C137.453 35.7434 136.66 35.9568 135.98 36.3834C135.313 36.7968 134.793 37.3768 134.42 38.1234C134.047 38.8568 133.853 39.6968 133.84 40.6434C133.853 41.6168 134.06 42.4834 134.46 43.2434C134.86 44.0034 135.407 44.5968 136.1 45.0234C136.807 45.4501 137.62 45.6634 138.54 45.6634C139.233 45.6634 139.873 45.5368 140.46 45.2834C141.047 45.0301 141.573 44.6834 142.04 44.2434L142.28 44.6034C141.947 44.9101 141.587 45.1768 141.2 45.4034C140.827 45.6168 140.413 45.7834 139.96 45.9034C139.52 46.0368 139.047 46.1034 138.54 46.1034ZM148.658 46.1034C147.778 46.1034 146.978 45.9368 146.258 45.6034C145.538 45.2701 144.985 44.8301 144.598 44.2834L144.938 43.9834C145.312 44.4768 145.818 44.8834 146.458 45.2034C147.098 45.5101 147.845 45.6634 148.698 45.6634C149.245 45.6634 149.712 45.5968 150.098 45.4634C150.485 45.3301 150.798 45.1501 151.038 44.9234C151.278 44.6968 151.458 44.4434 151.578 44.1634C151.698 43.8701 151.758 43.5634 151.758 43.2434C151.758 42.5901 151.478 42.0768 150.918 41.7034C150.652 41.5034 150.318 41.3301 149.918 41.1834C149.518 41.0368 149.052 40.9034 148.518 40.7834C147.918 40.6368 147.385 40.4701 146.918 40.2834C146.465 40.0968 146.092 39.8834 145.798 39.6434C145.532 39.4168 145.332 39.1768 145.198 38.9234C145.065 38.6568 144.998 38.3634 144.998 38.0434C144.998 37.6301 145.078 37.2568 145.238 36.9234C145.412 36.5901 145.645 36.3034 145.938 36.0634C146.245 35.8101 146.612 35.6234 147.038 35.5034C147.478 35.3701 147.965 35.3034 148.498 35.3034C148.965 35.3034 149.418 35.3701 149.858 35.5034C150.298 35.6368 150.712 35.8301 151.098 36.0834C151.485 36.3368 151.832 36.6434 152.138 37.0034L151.818 37.3634C151.525 37.0301 151.205 36.7434 150.858 36.5034C150.512 36.2501 150.138 36.0634 149.738 35.9434C149.352 35.8101 148.938 35.7434 148.498 35.7434C148.018 35.7434 147.585 35.8034 147.198 35.9234C146.825 36.0301 146.505 36.1901 146.238 36.4034C145.972 36.6034 145.772 36.8434 145.638 37.1234C145.505 37.3901 145.438 37.6901 145.438 38.0234C145.438 38.2501 145.485 38.4701 145.578 38.6834C145.672 38.8968 145.825 39.0901 146.038 39.2634C146.305 39.4901 146.652 39.6901 147.078 39.8634C147.518 40.0368 148.025 40.1901 148.598 40.3234C149.198 40.4568 149.718 40.6101 150.158 40.7834C150.612 40.9434 150.985 41.1368 151.278 41.3634C151.585 41.5901 151.812 41.8568 151.958 42.1634C152.118 42.4701 152.198 42.8301 152.198 43.2434C152.198 43.8168 152.058 44.3234 151.778 44.7634C151.498 45.1901 151.092 45.5234 150.558 45.7634C150.025 45.9901 149.392 46.1034 148.658 46.1034Z" fill="white"/>
<defs>
<linearGradient id="paint0_linear_104_2" x1="185.188" y1="23.7499" x2="136.334" y2="13.5129" gradientUnits="userSpaceOnUse">
<stop stop-color="#2089B6"/>
<stop offset="1" stop-color="#53BCE9"/>
</linearGradient>
<linearGradient id="paint1_linear_104_2" x1="77" y1="26.9034" x2="77" y2="48.9034" gradientUnits="userSpaceOnUse">
<stop stop-color="#2089B6"/>
<stop offset="1" stop-color="#53BCE9"/>
</linearGradient>
</defs>
</svg>
